<?xml version="1.0" encoding="utf-8"?>
<!DOCTYPE svg PUBLIC "-//W3C//DTD SVG 1.1//EN" "http://www.w3.org/Graphics/SVG/1.1/DTD/svg11.dtd">
<svg version="1.1" id="isofill-10" xmlns="http://www.w3.org/2000/svg" xmlns:xlink="http://www.w3.org/1999/xlink" x="0px" y="0px"
	 width="300px" height="260px" viewBox="0 0 300 260" enable-background="new 0 0 300 260" xml:space="preserve">
<g fill="#404041">
	<polygon points="60,0 30,0 45,26"/>
	<polygon points="165,26 150,52 180,52"/>
	<polygon points="225,26 210,52 240,52"/>
	<polygon points="285,26 270,52 300,52"/>
	<polygon points="30,52 15,78 45,78"/>
	<polygon points="60,52 45,78 75,78"/>
	<polygon points="180,104 210,104 195,78"/>
	<polygon points="225,78 240,104 255,78"/>
	<polygon points="30,104 15,130 45,130"/>
	<polygon points="210,104 225,130 240,104"/>
	<polygon points="15,130 0,156 30,156"/>
	<polygon points="240,156 270,156 255,130"/>
	<polygon points="120,156 105,182 135,182"/>
	<polygon points="30,208 60,208 45,182"/>
	<polygon points="75,234 90,208 60,208"/>
	<polygon points="135,234 165,234 150,208"/>
	<polygon points="195,234 210,208 180,208"/>
	<polygon points="0,260 30,260 15,234"/>
</g>
<g fill="#3E3E3F">
	<polygon points="15,26 45,26 30,0"/>
	<polygon points="75,26 105,26 90,0"/>
	<polygon points="135,26 150,0 120,0"/>
	<polygon points="180,0 150,0 165,26"/>
	<polygon points="120,52 135,26 105,26"/>
	<polygon points="255,78 270,52 240,52"/>
	<polygon points="165,130 195,130 180,104"/>
	<polygon points="225,182 240,156 210,156"/>
	<polygon points="0,156 -15,182 15,182"/>
	<polygon points="165,234 195,234 180,208"/>
	<polygon points="300,156 285,182 315,182"/>
	<polygon points="30,260 45,234 15,234"/>
</g>
<g fill="#3C3C3D">
	<polygon points="285,26 255,26 270,52"/>
	<polygon points="90,52 105,78 120,52"/>
	<polygon points="0,52 -15,78 15,78"/>
	<polygon points="30,104 15,78 0,104"/>
	<polygon points="75,78 45,78 60,104"/>
	<polygon points="105,78 75,78 90,104"/>
	<polygon points="255,78 240,104 270,104"/>
	<polygon points="135,130 150,104 120,104"/>
	<polygon points="300,104 270,104 285,130"/>
	<polygon points="45,130 60,156 75,130"/>
	<polygon points="60,156 30,156 45,182"/>
	<polygon points="75,182 105,182 90,156"/>
	<polygon points="90,208 120,208 105,182"/>
	<polygon points="255,182 270,208 285,182"/>
	<polygon points="45,234 75,234 60,208"/>
	<polygon points="105,234 135,234 120,208"/>
	<polygon points="270,208 285,234 315,234 300,208"/>
	<polygon points="-15,234 15,234 0,208"/>
	<polygon points="315,78 300,52 285,78"/>
	<polygon points="60,260 90,260 75,234"/>
</g>
<g fill="#3A3A3B">
	<polygon points="90,52 60,52 75,78"/>
	<polygon points="150,52 135,78 150,104 165,78"/>
	<polygon points="255,78 240,52 210,52 225,78"/>
	<polygon points="15,78 30,104 45,78"/>
	<polygon points="165,130 180,104 150,104"/>
	<polygon points="90,156 105,130 75,130"/>
	<polygon points="60,156 45,182 75,182"/>
	<polygon points="225,182 255,182 240,156"/>
	<polygon points="90,260 105,234 75,234"/>
</g>
<g fill="#383839">
	<polygon points="150,0 135,26 165,26"/>
	<polygon points="135,26 120,52 150,52"/>
	<polygon points="180,52 150,52 165,78"/>
	<polygon points="210,52 180,52 195,78"/>
	<polygon points="105,78 90,104 120,104"/>
	<polygon points="60,104 45,130 75,130"/>
	<polygon points="210,104 180,104 195,130"/>
	<polygon points="225,130 255,130 240,104"/>
	<polygon points="15,130 -15,130 0,156"/>
	<polygon points="45,182 30,156 15,182"/>
	<polygon points="135,182 150,156 120,156"/>
	<polygon points="165,182 180,156 150,156"/>
	<polygon points="75,182 90,208 105,182"/>
	<polygon points="210,208 225,182 195,182"/>
	<polygon points="0,208 15,234 45,234 60,208 30,208"/>
	<polygon points="165,234 180,208 150,208"/>
	<polygon points="285,130 300,156 315,130"/>
	<polygon points="105,234 120,260 150,260 135,234"/>
</g>
<g fill="#363636">
	<polygon points="195,26 210,52 225,26 210,0"/>
	<polygon points="210,104 225,78 195,78"/>
	<polygon points="75,130 105,130 90,104"/>
	<polygon points="30,156 60,156 45,130"/>
	<polygon points="180,156 195,130 165,130"/>
	<polygon points="285,182 270,208 300,208"/>
	<polygon points="120,208 135,234 150,208"/>
	<polygon points="150,260 180,260 165,234"/>
</g>
<g fill="#343434">
	<polygon points="-15,26 15,26 0,0"/>
	<polygon points="60,52 75,26 45,26"/>
	<polygon points="75,26 90,52 105,26"/>
	<polygon points="240,52 270,52 255,26"/>
	<polygon points="105,78 90,52 75,78"/>
	<polygon points="90,104 75,78 60,104"/>
	<polygon points="120,156 150,156 135,130"/>
	<polygon points="210,156 225,130 195,130"/>
	<polygon points="60,208 90,208 75,182"/>
	<polygon points="300,0 285,26 315,26"/>
	<polygon points="210,260 225,234 195,234"/>
</g>
<g fill="#323232">
	<polygon points="30,0 0,0 15,26"/>
	<polygon points="60,0 45,26 75,26"/>
	<polygon points="300,0 270,0 285,26"/>
	<polygon points="45,26 15,26 30,52"/>
	<polygon points="105,26 90,52 120,52"/>
	<polygon points="195,26 210,0 180,0 165,26 180,52"/>
	<polygon points="300,52 270,52 285,78"/>
	<polygon points="195,78 165,78 180,104"/>
	<polygon points="45,130 60,104 30,104"/>
	<polygon points="75,130 90,104 60,104"/>
	<polygon points="135,130 120,104 90,104 105,130"/>
	<polygon points="195,130 225,130 210,104"/>
	<polygon points="270,104 240,104 255,130"/>
	<polygon points="0,104 -15,130 15,130"/>
	<polygon points="15,182 30,156 0,156"/>
	<polygon points="180,156 195,182 210,156"/>
	<polygon points="270,156 255,182 285,182"/>
	<polygon points="120,208 135,182 105,182"/>
	<polygon points="150,208 165,182 135,182"/>
	<polygon points="210,208 240,208 225,182"/>
	<polygon points="240,208 270,208 255,182"/>
	<polygon points="0,260 15,234 -15,234"/>
	<polygon points="285,130 315,130 300,104"/>
	<polygon points="300,260 315,234 285,234"/>
	<polygon points="210,260 240,260 225,234"/>
</g>
<g fill="#303030">
	<polygon points="120,0 90,0 105,26"/>
	<polygon points="0,52 30,52 15,26"/>
	<polygon points="165,26 135,26 150,52"/>
	<polygon points="255,26 225,26 240,52"/>
	<polygon points="30,52 45,78 60,52"/>
	<polygon points="120,52 105,78 120,104 135,78"/>
	<polygon points="195,78 180,52 165,78"/>
	<polygon points="270,52 255,78 270,104 285,78"/>
	<polygon points="45,78 30,104 60,104"/>
	<polygon points="15,130 30,104 0,104"/>
	<polygon points="255,130 285,130 270,104"/>
	<polygon points="90,156 105,182 120,156 105,130"/>
	<polygon points="165,130 135,130 150,156 180,156"/>
	<polygon points="195,130 180,156 210,156"/>
	<polygon points="300,156 285,130 270,156"/>
	<polygon points="75,182 90,156 60,156"/>
	<polygon points="-15,182 0,208 30,208 15,182"/>
	<polygon points="60,208 75,182 45,182"/>
	<polygon points="180,208 165,182 150,208"/>
	<polygon points="225,182 240,208 255,182"/>
	<polygon points="75,234 105,234 120,208 90,208"/>
	<polygon points="210,208 225,234 255,234 240,208"/>
	<polygon points="285,182 300,208 315,182"/>
	<polygon points="150,260 165,234 135,234"/>
	<polygon points="165,234 180,260 210,260 195,234"/>
	<polygon points="240,260 270,260 255,234"/>
</g>
<g fill="#2E2E2E">
	<polygon points="240,0 210,0 225,26"/>
	<polygon points="285,26 270,0 240,0 255,26"/>
	<polygon points="0,52 15,26 -15,26"/>
	<polygon points="120,52 135,78 150,52"/>
	<polygon points="0,104 15,78 -15,78"/>
	<polygon points="150,104 135,78 120,104"/>
	<polygon points="225,78 210,104 240,104"/>
	<polygon points="135,130 105,130 120,156"/>
	<polygon points="255,130 270,156 285,130"/>
	<polygon points="195,182 225,182 210,156"/>
	<polygon points="255,182 270,156 240,156"/>
	<polygon points="285,182 300,156 270,156"/>
	<polygon points="120,208 150,208 135,182"/>
	<polygon points="180,208 195,182 165,182"/>
	<polygon points="195,234 225,234 210,208"/>
	<polygon points="315,26 285,26 300,52"/>
	<polygon points="300,104 315,78 285,78"/>
	<polygon points="30,260 60,260 75,234 45,234"/>
	<polygon points="270,260 285,234 255,234"/>
</g>
<g fill="#404041">
	<polygon points="60,0 75,26 90,0"/>
	<polygon points="120,0 105,26 135,26"/>
	<polygon points="240,0 225,26 255,26"/>
	<polygon points="45,26 30,52 60,52"/>
	<polygon points="75,26 60,52 90,52"/>
	<polygon points="195,26 180,52 210,52"/>
	<polygon points="30,52 0,52 15,78"/>
	<polygon points="225,78 210,52 195,78"/>
	<polygon points="165,78 150,104 180,104"/>
	<polygon points="285,78 270,104 300,104"/>
	<polygon points="165,130 150,104 135,130"/>
	<polygon points="30,156 45,130 15,130"/>
	<polygon points="75,130 60,156 90,156"/>
	<polygon points="255,130 225,130 210,156 240,156"/>
	<polygon points="135,182 165,182 150,156"/>
	<polygon points="165,182 195,182 180,156"/>
	<polygon points="30,208 45,182 15,182"/>
	<polygon points="180,208 210,208 195,182"/>
	<polygon points="240,208 255,234 285,234 270,208"/>
	<polygon points="90,260 120,260 105,234"/>
	<polygon points="240,260 255,234 225,234"/>
	<polygon points="270,260 300,260 285,234"/>
</g>
</svg>