<svg xmlns="http://www.w3.org/2000/svg" version="1.1" x="0px" y="0px" width="600px" height="520px" viewBox="0 0 600 520" xml:space="preserve" enable-background="new 0 0 600 520"><style>.s0{fill:#323132;}.s1{fill:#58585b;}.s2{fill:#626366;}.s3{fill:#4c4c4e;}.s4{fill:#404041;}</style><polygon class="s0" points="0,0 30,52 60,0"/><polygon class="s1" points="90,52 60,0 30,52"/><polygon class="s1" points="60,0 90,52 120,0"/><polygon class="s2" points="150,52 120,0 90,52"/><polygon class="s1" points="120,0 150,52 180,0"/><polygon class="s2" points="210,52 180,0 150,52"/><polygon class="s1" points="180,0 210,52 240,0"/><polygon class="s1" points="270,52 240,0 210,52"/><polygon class="s3" points="240,0 270,52 300,0"/><polygon class="s0" points="330,52 300,0 270,52"/><polygon class="s4" points="300,0 330,52 360,0"/><polygon class="s1" points="390,52 360,0 330,52"/><polygon class="s2" points="360,0 390,52 420,0"/><polygon class="s2" points="450,52 420,0 390,52"/><polygon class="s3" points="420,0 450,52 480,0"/><polygon class="s0" points="510,52 480,0 450,52"/><polygon class="s4" points="480,0 510,52 540,0"/><polygon class="s3" points="570,52 540,0 510,52"/><polygon class="s4" points="540,0 570,52 600,0"/><polygon class="s1" points="-30,52 0,104 30,52"/><polygon class="s4" points="30,52 0,0 -30,52"/><polygon class="s3" points="60,104 30,52 0,104"/><polygon class="s0" points="30,52 60,104 90,52"/><polygon class="s4" points="120,104 90,52 60,104"/><polygon class="s2" points="90,52 120,104 150,52"/><polygon class="s4" points="180,104 150,52 120,104"/><polygon class="s2" points="150,52 180,104 210,52"/><polygon class="s0" points="240,104 210,52 180,104"/><polygon class="s0" points="210,52 240,104 270,52"/><polygon class="s2" points="300,104 270,52 240,104"/><polygon class="s4" points="270,52 300,104 330,52"/><polygon class="s4" points="360,104 330,52 300,104"/><polygon class="s3" points="330,52 360,104 390,52"/><polygon class="s4" points="420,104 390,52 360,104"/><polygon class="s2" points="390,52 420,104 450,52"/><polygon class="s0" points="480,104 450,52 420,104"/><polygon class="s4" points="450,52 480,104 510,52"/><polygon class="s3" points="540,104 510,52 480,104"/><polygon class="s4" points="510,52 540,104 570,52"/><polygon class="s3" points="600,104 570,52 540,104"/><polygon class="s3" points="0,104 30,156 60,104"/><polygon class="s4" points="90,156 60,104 30,156"/><polygon class="s3" points="60,104 90,156 120,104"/><polygon class="s4" points="150,156 120,104 90,156"/><polygon class="s2" points="120,104 150,156 180,104"/><polygon class="s3" points="210,156 180,104 150,156"/><polygon class="s4" points="180,104 210,156 240,104"/><polygon class="s4" points="270,156 240,104 210,156"/><polygon class="s4" points="240,104 270,156 300,104"/><polygon class="s1" points="330,156 300,104 270,156"/><polygon class="s4" points="300,104 330,156 360,104"/><polygon class="s3" points="390,156 360,104 330,156"/><polygon class="s4" points="360,104 390,156 420,104"/><polygon class="s1" points="450,156 420,104 390,156"/><polygon class="s2" points="420,104 450,156 480,104"/><polygon class="s2" points="510,156 480,104 450,156"/><polygon class="s3" points="480,104 510,156 540,104"/><polygon class="s0" points="570,156 540,104 510,156"/><polygon class="s3" points="540,104 570,156 600,104"/><polygon class="s4" points="-30,156 0,208 30,156"/><polygon class="s2" points="30,156 0,104 -30,156"/><polygon class="s2" points="60,208 30,156 0,208"/><polygon class="s4" points="30,156 60,208 90,156"/><polygon class="s3" points="120,208 90,156 60,208"/><polygon class="s3" points="90,156 120,208 150,156"/><polygon class="s1" points="180,208 150,156 120,208"/><polygon class="s3" points="150,156 180,208 210,156"/><polygon class="s2" points="240,208 210,156 180,208"/><polygon class="s4" points="210,156 240,208 270,156"/><polygon class="s4" points="300,208 270,156 240,208"/><polygon class="s3" points="270,156 300,208 330,156"/><polygon class="s0" points="360,208 330,156 300,208"/><polygon class="s4" points="330,156 360,208 390,156"/><polygon class="s3" points="420,208 390,156 360,208"/><polygon class="s3" points="390,156 420,208 450,156"/><polygon class="s0" points="480,208 450,156 420,208"/><polygon class="s2" points="450,156 480,208 510,156"/><polygon class="s1" points="540,208 510,156 480,208"/><polygon class="s3" points="510,156 540,208 570,156"/><polygon class="s4" points="600,208 570,156 540,208"/><polygon class="s0" points="0,208 30,260 60,208"/><polygon class="s2" points="90,260 60,208 30,260"/><polygon class="s4" points="60,208 90,260 120,208"/><polygon class="s2" points="150,260 120,208 90,260"/><polygon class="s4" points="120,208 150,260 180,208"/><polygon class="s1" points="210,260 180,208 150,260"/><polygon class="s3" points="180,208 210,260 240,208"/><polygon class="s3" points="270,260 240,208 210,260"/><polygon class="s2" points="240,208 270,260 300,208"/><polygon class="s2" points="330,260 300,208 270,260"/><polygon class="s2" points="300,208 330,260 360,208"/><polygon class="s3" points="390,260 360,208 330,260"/><polygon class="s1" points="360,208 390,260 420,208"/><polygon class="s3" points="450,260 420,208 390,260"/><polygon class="s0" points="420,208 450,260 480,208"/><polygon class="s4" points="510,260 480,208 450,260"/><polygon class="s0" points="480,208 510,260 540,208"/><polygon class="s4" points="570,260 540,208 510,260"/><polygon class="s3" points="540,208 570,260 600,208"/><polygon class="s1" points="-30,260 0,312 30,260"/><polygon class="s2" points="30,260 0,208 -30,260"/><polygon class="s4" points="60,312 30,260 0,312"/><polygon class="s4" points="30,260 60,312 90,260"/><polygon class="s3" points="120,312 90,260 60,312"/><polygon class="s4" points="90,260 120,312 150,260"/><polygon class="s4" points="180,312 150,260 120,312"/><polygon class="s4" points="150,260 180,312 210,260"/><polygon class="s1" points="240,312 210,260 180,312"/><polygon class="s1" points="210,260 240,312 270,260"/><polygon class="s2" points="300,312 270,260 240,312"/><polygon class="s4" points="270,260 300,312 330,260"/><polygon class="s2" points="360,312 330,260 300,312"/><polygon class="s4" points="330,260 360,312 390,260"/><polygon class="s4" points="420,312 390,260 360,312"/><polygon class="s3" points="390,260 420,312 450,260"/><polygon class="s3" points="480,312 450,260 420,312"/><polygon class="s4" points="450,260 480,312 510,260"/><polygon class="s4" points="540,312 510,260 480,312"/><polygon class="s2" points="510,260 540,312 570,260"/><polygon class="s4" points="600,312 570,260 540,312"/><polygon class="s2" points="0,312 30,364 60,312"/><polygon class="s1" points="90,364 60,312 30,364"/><polygon class="s3" points="60,312 90,364 120,312"/><polygon class="s3" points="150,364 120,312 90,364"/><polygon class="s3" points="120,312 150,364 180,312"/><polygon class="s1" points="210,364 180,312 150,364"/><polygon class="s0" points="180,312 210,364 240,312"/><polygon class="s1" points="270,364 240,312 210,364"/><polygon class="s3" points="240,312 270,364 300,312"/><polygon class="s3" points="330,364 300,312 270,364"/><polygon class="s0" points="300,312 330,364 360,312"/><polygon class="s3" points="390,364 360,312 330,364"/><polygon class="s4" points="360,312 390,364 420,312"/><polygon class="s3" points="450,364 420,312 390,364"/><polygon class="s2" points="420,312 450,364 480,312"/><polygon class="s3" points="510,364 480,312 450,364"/><polygon class="s2" points="480,312 510,364 540,312"/><polygon class="s3" points="570,364 540,312 510,364"/><polygon class="s2" points="540,312 570,364 600,312"/><polygon class="s2" points="-30,364 0,416 30,364"/><polygon class="s3" points="30,364 0,312 -30,364"/><polygon class="s3" points="60,416 30,364 0,416"/><polygon class="s2" points="30,364 60,416 90,364"/><polygon class="s1" points="120,416 90,364 60,416"/><polygon class="s0" points="90,364 120,416 150,364"/><polygon class="s3" points="180,416 150,364 120,416"/><polygon class="s3" points="150,364 180,416 210,364"/><polygon class="s2" points="240,416 210,364 180,416"/><polygon class="s2" points="210,364 240,416 270,364"/><polygon class="s1" points="300,416 270,364 240,416"/><polygon class="s3" points="270,364 300,416 330,364"/><polygon class="s2" points="360,416 330,364 300,416"/><polygon class="s2" points="330,364 360,416 390,364"/><polygon class="s0" points="420,416 390,364 360,416"/><polygon class="s2" points="390,364 420,416 450,364"/><polygon class="s4" points="480,416 450,364 420,416"/><polygon class="s3" points="450,364 480,416 510,364"/><polygon class="s0" points="540,416 510,364 480,416"/><polygon class="s0" points="510,364 540,416 570,364"/><polygon class="s2" points="600,416 570,364 540,416"/><polygon class="s0" points="0,416 30,468 60,416"/><polygon class="s3" points="90,468 60,416 30,468"/><polygon class="s0" points="60,416 90,468 120,416"/><polygon class="s4" points="150,468 120,416 90,468"/><polygon class="s0" points="120,416 150,468 180,416"/><polygon class="s2" points="210,468 180,416 150,468"/><polygon class="s0" points="180,416 210,468 240,416"/><polygon class="s0" points="270,468 240,416 210,468"/><polygon class="s2" points="240,416 270,468 300,416"/><polygon class="s4" points="330,468 300,416 270,468"/><polygon class="s0" points="300,416 330,468 360,416"/><polygon class="s3" points="390,468 360,416 330,468"/><polygon class="s3" points="360,416 390,468 420,416"/><polygon class="s3" points="450,468 420,416 390,468"/><polygon class="s0" points="420,416 450,468 480,416"/><polygon class="s4" points="510,468 480,416 450,468"/><polygon class="s0" points="480,416 510,468 540,416"/><polygon class="s0" points="570,468 540,416 510,468"/><polygon class="s4" points="540,416 570,468 600,416"/><polygon class="s0" points="-30,468 0,520 30,468"/><polygon class="s4" points="30,468 0,416 -30,468"/><polygon class="s1" points="570,52 600,104 630,52"/><polygon class="s4" points="630,52 600,0 570,52"/><polygon class="s4" points="570,156 600,208 630,156"/><polygon class="s2" points="630,156 600,104 570,156"/><polygon class="s1" points="570,260 600,312 630,260"/><polygon class="s2" points="630,260 600,208 570,260"/><polygon class="s2" points="570,364 600,416 630,364"/><polygon class="s3" points="630,364 600,312 570,364"/><polygon class="s0" points="570,468 600,520 630,468"/><polygon class="s4" points="630,468 600,416 570,468"/><polygon class="s2" points="60,520 30,468 0,520"/><polygon class="s4" points="30,468 60,520 90,468"/><polygon class="s1" points="120,520 90,468 60,520"/><polygon class="s4" points="90,468 120,520 150,468"/><polygon class="s2" points="180,520 150,468 120,520"/><polygon class="s3" points="150,468 180,520 210,468"/><polygon class="s3" points="240,520 210,468 180,520"/><polygon class="s4" points="210,468 240,520 270,468"/><polygon class="s3" points="300,520 270,468 240,520"/><polygon class="s1" points="270,468 300,520 330,468"/><polygon class="s3" points="360,520 330,468 300,520"/><polygon class="s4" points="330,468 360,520 390,468"/><polygon class="s4" points="420,520 390,468 360,520"/><polygon class="s1" points="390,468 420,520 450,468"/><polygon class="s1" points="480,520 450,468 420,520"/><polygon class="s2" points="450,468 480,520 510,468"/><polygon class="s0" points="540,520 510,468 480,520"/><polygon class="s0" points="510,468 540,520 570,468"/><polygon class="s1" points="600,520 570,468 540,520"/></svg>