<svg version="1.1" id="logotype-dark" xmlns="http://www.w3.org/2000/svg" x="0px" y="0px" width="452px" height="53px" viewBox="0 0 452 53" style="enable-background:new 0 0 452 53;" xml:space="preserve">
<style type="text/css">
<![CDATA[
	.bijnen{fill:#E6E7E8;}
	.ruud{fill:#A7A9AC;}
]]>
</style>
<g>
	<path class="ruud" d="M1.116,52.003H0v-52.06h17.997c20.825,0,20.825,30.418,0,30.418H9.594l23.948,21.642h-1.71L7.883,30.361 v-1.114h10.114c19.337,0,19.337-28.114,0-28.114H1.116V52.003z"/>
	<path class="ruud" d="M46.552,37.872V0.018h1.19v37.93c0,9,9.073,13.462,17.031,13.462c7.958,0,17.031-4.462,17.031-13.537V0.018 h1.19v37.93c0,9.594-9.668,14.652-18.221,14.652C56.146,52.6,46.552,47.541,46.552,37.872z"/>
	<path class="ruud" d="M97.269,37.872V0.018h1.189v37.93c0,9,9.074,13.462,17.031,13.462c7.958,0,17.031-4.462,17.031-13.537V0.018 h1.19v37.93c0,9.594-9.668,14.652-18.221,14.652C106.863,52.6,97.269,47.541,97.269,37.872z"/>
	<path class="ruud" d="M165.537,0.018c34.136,0,34.136,51.985,0,51.985h-17.552c0-17.327,0-34.656,0-51.985H165.537z M165.537,50.888 c32.65,0,32.65-49.754,0-49.754h-16.436c0,16.139,0,33.616,0,49.754H165.537z"/>
	<path class="bijnen" d="M235.888,7.38c1.19,3.124,1.19,6.842,0,10.041c-1.116,2.826-3.125,5.206-6.099,6.47 c15.246,2.678,14.353,28.112-2.753,28.112c-5.651,0-17.551,0-23.129,0V0.018c4.983,0,16.139,0,21.048,0 C230.607,0.018,234.251,3.216,235.888,7.38z M205.097,23.594h19.857c5.132,0,8.404-2.9,9.892-6.619 c1.116-2.901,1.116-6.248,0-9.147c-1.488-3.72-4.759-6.694-9.892-6.694h-19.857V23.594z M205.097,50.888h21.939 c16.585,0,16.585-26.104,0-26.104h-21.939V50.888z"/>
	<path class="bijnen" d="M272.325,1.059h-11.082v49.829h11.082v1.115c-7.735,0-15.543,0-23.278,0v-1.115h11.081V1.059h-11.081V0.018 c7.735,0,15.543,0,23.278,0V1.059z"/>
	<path class="bijnen" d="M307.351,29.989c0,15.098-11.23,22.014-25.36,22.014v-1.188c13.535,0,24.246-6.396,24.246-20.825 c0-8.776,0-20.006,0-28.93h-16.065V0.018c5.726,0,11.453,0,17.18,0C307.351,9.091,307.351,20.842,307.351,29.989z"/>
	<path class="bijnen" d="M321.701,52.003V0l1.041-0.057l34.583,49.979V0h1.115v52.003h-1.189l-34.36-49.679v49.679H321.701z"/>
	<path class="bijnen" d="M374.055,50.888h27.666v1.115h-28.708h-0.148V0.018h28.707v1.116h-27.517v24.245h26.923v1.191h-26.923V50.888z"/>
	<path class="bijnen" d="M414.584,52.003V0l1.104,0.006l34.519,49.916V0h1.116v52.003h-1.189l-34.36-49.679v49.679H414.584z"/>
</g>
</svg>