<?xml version="1.0" encoding="utf-8"?>
<!DOCTYPE svg PUBLIC "-//W3C//DTD SVG 1.1//EN" "http://www.w3.org/Graphics/SVG/1.1/DTD/svg11.dtd">
<svg version="1.1" id="Layer_1" xmlns="http://www.w3.org/2000/svg" xmlns:xlink="http://www.w3.org/1999/xlink" x="0px" y="0px"
	 width="600px" height="520px" viewBox="0 0 600 520" enable-background="new 0 0 600 520" xml:space="preserve">
<g id="c7" fill="#414042">
	<polygon points="120,0 90,52 150,52"/>
	<polygon points="240,0 180,0 210,52"/>
	<polygon points="30,52 60,104 90,52"/>
	<polygon points="570,52 540,104 570,156 600,104"/>
	<polygon points="90,156 150,156 120,104"/>
	<polygon points="270,156 300,104 270,52 240,104"/>
	<polygon points="360,104 330,52 300,104 330,156"/>
	<polygon points="150,156 180,208 210,156"/>
	<polygon points="360,208 420,208 390,156"/>
	<polygon points="510,156 480,104 450,156 480,208"/>
	<polygon points="150,260 180,208 120,208"/>
	<polygon points="240,208 180,208 210,260"/>
	<polygon points="420,208 390,260 450,260"/>
	<polygon points="420,312 390,260 360,312"/>
	<polygon points="480,312 510,364 540,312"/>
	<polygon points="90,364 120,416 150,364"/>
	<polygon points="510,364 540,416 570,364"/>
	<polygon points="90,468 150,468 120,416"/>
	<polygon points="150,468 120,520 180,520 210,468 180,416"/>
	<polygon points="240,416 270,468 300,416"/>
	<polygon points="330,468 390,468 360,416"/>
	<polygon points="570,468 600,416 540,416"/>
	<polygon points="210,468 240,520 300,520 330,468 270,468"/>
</g>
<g id="c6" fill="#B01F64">
	<polygon points="600,0 540,0 570,52"/>
	<polygon points="30,52 -30,52 0,104"/>
	<polygon points="90,52 60,104 120,104"/>
	<polygon points="150,52 180,104 210,52"/>
	<polygon points="330,52 270,52 300,104"/>
	<polygon points="390,52 420,104 450,52"/>
	<polygon points="180,104 120,104 150,156"/>
	<polygon points="420,104 390,156 420,208 450,156"/>
	<polygon points="570,156 510,156 540,208"/>
	<polygon points="240,208 270,260 300,208"/>
	<polygon points="30,260 60,312 120,312 90,260"/>
	<polygon points="330,260 270,260 300,312"/>
	<polygon points="510,260 540,312 570,260"/>
	<polygon points="120,312 90,364 150,364"/>
	<polygon points="450,364 510,364 480,312"/>
	<polygon points="0,416 60,416 30,364"/>
	<polygon points="60,416 120,416 90,364"/>
	<polygon points="180,416 240,416 270,364 210,364"/>
	<polygon points="330,364 360,416 390,468 420,416 390,364"/>
	<polygon points="480,416 540,416 510,364"/>
	<polygon points="150,468 180,416 120,416"/>
	<polygon points="-30,468 0,520 60,520 30,468"/>
	<polygon points="630,52 570,52 600,104"/>
	<polygon points="600,520 630,468 570,468"/>
	<polygon points="60,520 120,520 90,468"/>
	<polygon points="300,520 360,520 330,468"/>
</g>
<g id="c5" fill="#0C9DB1">
	<polygon points="60,0 0,0 30,52"/>
	<polygon points="150,52 210,52 180,0"/>
	<polygon points="240,0 270,52 300,0"/>
	<polygon points="480,0 420,0 390,52 450,52"/>
	<polygon points="540,0 480,0 510,52"/>
	<polygon points="120,104 150,52 90,52"/>
	<polygon points="210,52 240,104 270,52"/>
	<polygon points="570,52 510,52 540,104"/>
	<polygon points="270,156 300,208 330,156 300,104"/>
	<polygon points="360,104 330,156 390,156"/>
	<polygon points="480,104 420,104 450,156"/>
	<polygon points="30,156 -30,156 0,208"/>
	<polygon points="30,260 90,260 120,208 90,156 60,208"/>
	<polygon points="510,260 570,260 540,208"/>
	<polygon points="150,260 180,312 240,312 210,260"/>
	<polygon points="570,260 540,312 570,364 600,312"/>
	<polygon points="300,312 270,364 330,364"/>
	<polygon points="390,364 450,364 420,312"/>
	<polygon points="600,416 570,364 540,416"/>
	<polygon points="30,468 60,416 0,416"/>
	<polygon points="390,468 450,468 420,416"/>
	<polygon points="450,468 510,468 480,416"/>
	<polygon points="570,156 600,208 630,156"/>
	<polygon points="120,520 150,468 90,468"/>
	<polygon points="360,520 390,468 330,468"/>
</g>
<g id="c4" fill="#FFE300">
	<polygon points="180,0 120,0 150,52"/>
	<polygon points="240,0 210,52 270,52"/>
	<polygon points="330,52 360,0 300,0"/>
	<polygon points="210,52 180,104 240,104"/>
	<polygon points="450,52 420,104 480,104"/>
	<polygon points="120,104 60,104 30,156 90,156"/>
	<polygon points="150,156 210,156 180,104"/>
	<polygon points="210,156 180,208 240,208"/>
	<polygon points="270,156 240,208 300,208"/>
	<polygon points="570,156 540,208 600,208"/>
	<polygon points="180,208 150,260 210,260"/>
	<polygon points="480,208 450,156 420,208 450,260"/>
	<polygon points="0,208 -30,260 30,260"/>
	<polygon points="90,260 120,312 150,260"/>
	<polygon points="300,312 330,364 360,312 330,260"/>
	<polygon points="120,312 150,364 180,312"/>
	<polygon points="210,364 270,364 240,312"/>
	<polygon points="210,468 240,416 180,416"/>
	<polygon points="420,416 450,468 480,416"/>
	<polygon points="630,260 600,208 570,260"/>
	<polygon points="60,520 90,468 30,468"/>
	<polygon points="480,520 510,468 450,468"/>
</g>
<g id="c3" fill="#0EB2C8">
	<polygon points="120,0 60,0 30,52 90,52"/>
	<polygon points="360,0 390,52 420,0"/>
	<polygon points="540,0 510,52 570,52"/>
	<polygon points="420,104 390,52 360,104"/>
	<polygon points="510,52 480,0 450,52 480,104"/>
	<polygon points="60,104 30,52 0,104 30,156"/>
	<polygon points="210,156 240,208 270,156 240,104"/>
	<polygon points="570,156 540,104 480,104 510,156"/>
	<polygon points="360,208 390,156 330,156"/>
	<polygon points="540,208 510,156 480,208"/>
	<polygon points="0,208 30,260 60,208"/>
	<polygon points="-30,260 0,312 30,260"/>
	<polygon points="450,260 420,312 450,364 480,312"/>
	<polygon points="60,312 30,364 60,416 90,364"/>
	<polygon points="180,312 150,364 210,364"/>
	<polygon points="-30,364 0,416 30,364 0,312"/>
	<polygon points="120,416 180,416 150,364"/>
	<polygon points="480,416 450,364 420,416"/>
	<polygon points="90,468 120,416 60,416"/>
	<polygon points="210,468 270,468 240,416"/>
	<polygon points="510,468 570,468 540,416"/>
	<polygon points="30,468 0,416 -30,468"/>
	<polygon points="570,260 600,312 630,260"/>
	<polygon points="600,312 570,364 600,416 630,364"/>
	<polygon points="630,468 600,416 570,468"/>
	<polygon points="540,520 510,468 480,520"/>
</g>
<g id="c2" fill="#EB1F80" >
	<polygon points="0,0 -30,52 30,52"/>
	<polygon points="390,52 330,52 360,104"/>
	<polygon points="510,52 480,104 540,104"/>
	<polygon points="240,104 180,104 210,156"/>
	<polygon points="420,104 360,104 390,156"/>
	<polygon points="-30,156 30,156 0,104"/>
	<polygon points="60,208 90,156 30,156"/>
	<polygon points="90,156 120,208 150,156"/>
	<polygon points="90,260 150,260 120,208"/>
	<polygon points="270,260 330,260 300,208"/>
	<polygon points="120,312 180,312 150,260"/>
	<polygon points="360,208 330,260 360,312 390,260"/>
	<polygon points="240,312 300,312 270,260 210,260"/>
	<polygon points="510,260 450,260 480,312"/>
	<polygon points="60,312 0,312 30,364"/>
	<polygon points="210,364 240,312 180,312"/>
	<polygon points="420,312 360,312 330,364 390,364"/>
	<polygon points="510,364 570,364 540,312"/>
	<polygon points="330,364 300,416 360,416"/>
	<polygon points="450,364 390,364 420,416"/>
	<polygon points="30,468 90,468 60,416"/>
	<polygon points="270,468 330,468 300,416"/>
	<polygon points="480,416 510,468 540,416"/>
	<polygon points="600,0 570,52 630,52"/>
	<polygon points="570,156 630,156 600,104"/>
	<polygon points="180,520 240,520 210,468"/>
	<polygon points="360,520 420,520 390,468"/>
	<polygon points="420,520 480,520 450,468"/>
	<polygon points="540,520 570,468 510,468"/>
</g>
<g id="c1" fill="#A7A9AC">
	<polygon points="300,0 270,52 330,52"/>
	<polygon points="360,0 330,52 390,52"/>
	<polygon points="30,156 0,208 60,208"/>
	<polygon points="390,260 420,208 360,208"/>
	<polygon points="480,208 450,260 510,260 540,208"/>
	<polygon points="90,364 120,312 60,312"/>
	<polygon points="240,312 270,364 300,312"/>
	<polygon points="240,416 300,416 270,364"/>
	<polygon points="330,468 360,416 300,416"/>
	<polygon points="570,468 540,520 600,520"/>
</g>
</svg>